<svg xmlns="http://www.w3.org/2000/svg" viewBox="0 0 120 120" role="img" aria-label="女性・40代のアバター">
<title>女性・40代</title>
<defs><clipPath id="c"><circle cx="60" cy="60" r="60"/></clipPath></defs>
<g clip-path="url(#c)">
<rect width="120" height="120" fill="#FCE4EC"/>
<path d="M30 60 Q28 24 60 24 Q92 24 90 60 L91 88 Q60 94 29 88 Z" fill="#4A3426"/>
<path d="M18 124 Q20 92 60 90 Q100 92 102 124 Z" fill="#C06C84"/>
<path d="M50 92 Q60 102 70 92" fill="none" stroke="#FFFFFF" stroke-width="2.5" opacity="0.85"/>
<rect x="53" y="78" width="14" height="14" rx="4" fill="#E9B894"/>
<circle cx="34" cy="60" r="5" fill="#F6D2B5"/><circle cx="86" cy="60" r="5" fill="#F6D2B5"/>
<ellipse cx="60" cy="58" rx="26" ry="28" fill="#F6D2B5"/>
<path d="M33 54 Q36 30 60 30 Q84 30 87 54 Q76 40 64 42 Q52 36 33 54 Z" fill="#4A3426"/>
<circle cx="50" cy="58" r="2.6" fill="#3A2E2A"/><circle cx="70" cy="58" r="2.6" fill="#3A2E2A"/><path d="M45 51 Q50 48 55 51" stroke="#4A3426" stroke-width="2" fill="none" stroke-linecap="round"/><path d="M65 51 Q70 48 75 51" stroke="#4A3426" stroke-width="2" fill="none" stroke-linecap="round"/><circle cx="44" cy="66" r="4" fill="#F4A6A6" opacity="0.45"/><circle cx="76" cy="66" r="4" fill="#F4A6A6" opacity="0.45"/><path d="M52 69 Q60 75 68 69" stroke="#9A4B3C" stroke-width="2.2" fill="none" stroke-linecap="round"/><path d="M53 69 Q60 73 67 69" stroke="#D9667A" stroke-width="1.4" fill="none" stroke-linecap="round"/>
</g>
</svg>
